<svg width="494" height="330" viewBox="0 0 494 330" fill="none" xmlns="http://www.w3.org/2000/svg">
<path d="M439.297 99.1809L432.994 129.768L428.939 125.805L422.034 130.736L416.76 124.175L404.926 132.795L394.82 115.852L383.541 122.47L379.07 116.291L364.75 124.376L360.441 115.134L370.478 66.4185L424.295 77.552L439.297 99.1809Z" fill="#EBEBEB"/>
<path d="M424.295 77.5526L439.299 99.1788L420.635 95.3178L424.295 77.5526Z" fill="#DBDBDB"/>
<path d="M431.653 135.881L422.409 180.758L349.926 165.766L359.101 121.247L363.41 130.489L377.731 122.404L382.202 128.584L393.481 121.965L403.586 138.908L415.42 130.288L420.694 136.849L427.599 131.918L431.653 135.881Z" fill="#EBEBEB"/>
<path d="M327.907 130.623L254.038 135.203L248.17 40.1854L303.018 36.7844L323.158 53.7101L327.907 130.623Z" fill="#EBEBEB"/>
<path d="M303.018 36.7844L323.158 53.7101L304.136 54.8895L303.018 36.7844Z" fill="#DBDBDB"/>
<path d="M282.541 100.714L282.255 98.571C281.509 94.1286 282.724 89.1607 286.576 83.9626C290.049 79.3663 291.934 76.0215 291.726 72.2971C291.49 68.0751 288.689 65.4087 283.479 65.6179C280.505 65.7849 277.256 66.9636 275.278 68.6526L273.004 63.5481C275.619 61.4084 280.255 59.8198 284.633 59.5736C294.133 59.0403 298.757 64.6774 299.109 70.9678C299.424 76.5976 296.511 80.8296 292.809 85.771C289.415 90.2794 288.297 93.9966 288.781 98.2041L288.984 100.352L282.541 100.714ZM281.371 112.405C281.2 109.342 283.145 107.074 286.036 106.911C288.927 106.749 291.03 108.79 291.202 111.854C291.364 114.751 289.588 117.093 286.532 117.264C283.641 117.427 281.533 115.303 281.371 112.405Z" fill="#DBDBDB"/>
<path d="M97.8002 84.5552L90.3665 81.1774L89.3357 83.4583C89.0327 84.1289 88.376 84.5572 87.6416 84.5896C87.2359 84.6074 86.8301 84.6476 86.4264 84.709C85.7018 84.8199 84.976 84.5275 84.5492 83.9309L83.0942 81.8954L76.4568 86.6606L77.9118 88.6954C78.3386 89.2927 78.3814 90.0748 78.0442 90.7269C77.8558 91.0899 77.6879 91.4622 77.5403 91.8417C77.2736 92.5281 76.6577 93.0131 75.9266 93.0851L73.4395 93.3293L74.241 101.468L76.7367 101.22C77.4685 101.146 78.1608 101.511 78.5579 102.132C78.666 102.3 78.7786 102.466 78.8952 102.63C79.0124 102.794 79.133 102.954 79.2575 103.11C79.7133 103.684 79.8358 104.454 79.5341 105.122L78.496 107.42L85.9297 110.798L86.9652 108.512C87.2688 107.841 87.9268 107.414 88.6612 107.382C89.0657 107.365 89.4694 107.325 89.8719 107.265C90.5957 107.155 91.3203 107.447 91.7471 108.043L93.2027 110.079L99.8401 105.314L98.3845 103.278C97.9583 102.681 97.9148 101.9 98.2514 101.249C98.4385 100.887 98.6051 100.516 98.7514 100.138C99.0175 99.4514 99.6326 98.965 100.364 98.8924L102.857 98.6449L102.055 90.5058L99.5615 90.7526C98.8324 90.8246 98.1421 90.4609 97.7462 89.8425C97.6375 89.6735 97.5243 89.5059 97.4064 89.3402C97.2891 89.1766 97.1686 89.0162 97.0441 88.8598C96.5857 88.2836 96.4631 87.5094 96.7668 86.8382L97.8002 84.5552ZM93.5835 92.0852C95.734 95.0928 95.0444 99.2739 92.0435 101.429C89.0419 103.584 84.864 102.897 82.7135 99.889C80.5629 96.8814 81.2539 92.6911 84.2554 90.5362C87.2563 88.3819 91.4329 89.0782 93.5835 92.0852Z" fill="#EBEBEB"/>
<path d="M433.657 192.531L428.703 195.394L429.579 196.913C429.837 197.36 429.813 197.909 429.531 198.341C429.376 198.58 429.233 198.828 429.103 199.083C428.871 199.542 428.408 199.837 427.895 199.837H426.145V205.568H427.895C428.408 205.568 428.871 205.863 429.103 206.322C429.233 206.577 429.376 206.825 429.531 207.064C429.813 207.496 429.838 208.045 429.579 208.492L428.703 210.011L433.657 212.874L434.533 211.349C434.79 210.901 435.28 210.655 435.795 210.681C435.934 210.689 436.075 210.692 436.216 210.692C436.356 210.692 436.497 210.689 436.636 210.681C437.149 210.655 437.636 210.899 437.893 211.344L438.774 212.874L443.727 210.01L442.85 208.487C442.593 208.04 442.618 207.49 442.9 207.059C443.055 206.821 443.198 206.574 443.327 206.32C443.56 205.862 444.022 205.568 444.535 205.568H446.286V199.836H444.535C444.022 199.836 443.56 199.542 443.327 199.084C443.198 198.83 443.055 198.583 442.9 198.345C442.618 197.913 442.593 197.364 442.85 196.916L443.727 195.393L438.774 192.529L437.897 194.053C437.64 194.499 437.152 194.744 436.639 194.718C436.499 194.711 436.358 194.707 436.215 194.707C436.074 194.707 435.934 194.711 435.794 194.718C435.28 194.744 434.79 194.498 434.532 194.051L433.657 192.531ZM436.216 198.009C438.803 198.009 440.898 200.109 440.898 202.701C440.898 205.292 438.803 207.396 436.216 207.396C433.63 207.396 431.53 205.292 431.53 202.701C431.53 200.109 433.629 198.009 436.216 198.009Z" fill="#EBEBEB"/>
<path d="M112.832 60.1676L108.29 63.6478L109.353 65.0404C109.666 65.4502 109.712 65.998 109.49 66.4627C109.366 66.7194 109.257 66.9834 109.161 67.254C108.99 67.7384 108.569 68.0909 108.06 68.1575L106.324 68.3839L107.063 74.0678L108.798 73.8415C109.307 73.7748 109.804 74.0078 110.093 74.4322C110.254 74.6691 110.428 74.8961 110.613 75.1126C110.947 75.5047 111.042 76.0465 110.845 76.5224L110.172 78.142L115.452 80.3411L116.125 78.7149C116.322 78.2384 116.776 77.9308 117.29 77.8899C117.429 77.8787 117.569 77.8642 117.709 77.8463C117.848 77.8279 117.987 77.8067 118.124 77.781C118.629 77.6886 119.144 77.8681 119.455 78.276L120.527 79.6792L125.07 76.199L124.005 74.8018C123.692 74.3919 123.646 73.8434 123.87 73.3788C123.994 73.1227 124.103 72.86 124.198 72.5908C124.37 72.107 124.791 71.7552 125.299 71.6885L127.035 71.4622L126.297 65.7782L124.561 66.0046C124.052 66.0713 123.556 65.839 123.266 65.4146C123.106 65.179 122.932 64.9532 122.748 64.7374C122.413 64.3454 122.317 63.8035 122.514 63.327L123.187 61.7034L117.907 59.5043L117.233 61.1285C117.036 61.6037 116.583 61.91 116.071 61.9502C115.932 61.9615 115.791 61.976 115.649 61.9945C115.509 62.0129 115.37 62.0341 115.233 62.0591C114.726 62.1522 114.208 61.9714 113.895 61.5608L112.832 60.1676ZM116.075 65.2694C118.64 64.9348 120.988 66.7458 121.322 69.3158C121.656 71.8859 119.849 74.2434 117.284 74.578C114.72 74.9126 112.366 73.0976 112.032 70.5276C111.698 67.9576 113.51 65.604 116.075 65.2694Z" fill="#EBEBEB"/>
<path d="M78.9208 209.077C79.1803 202.69 79.0762 196.291 78.6586 189.914C77.7971 176.759 75.636 163.707 72.6681 150.872C70.9977 143.647 68.94 136.545 66.7967 129.45C66.7322 129.235 66.391 129.296 66.4502 129.519C73.0791 154.53 78.5177 180.342 78.1436 206.34C78.0388 213.617 77.1984 220.763 76.5087 227.994C76.4903 228.187 76.8078 228.264 76.8519 228.066C78.2193 221.879 78.6639 215.396 78.9208 209.077Z" fill="#EBEBEB"/>
<path d="M66.4502 129.52C66.4502 129.52 56.4081 155.06 58.6562 161.064C60.9049 167.067 65.5399 168.347 65.5399 168.347C65.5399 168.347 59.3959 177.137 63.689 185.381C67.9829 193.625 77.5224 193.236 78.156 202.584C78.156 202.584 78.6875 163.498 66.4502 129.52Z" fill="#EBEBEB"/>
<path d="M77.0648 186.445C77.0773 186.402 77.074 186.356 77.0542 186.311C75.644 168.944 72.5694 151.632 67.3139 134.932C67.2987 134.882 67.2177 134.898 67.2309 134.949C69.2207 142.421 70.9912 149.932 72.5041 157.484C71.2 156.139 69.494 155.365 67.7104 154.806C67.6768 154.796 67.6603 154.844 67.6919 154.858C69.5494 155.662 71.3284 156.595 72.6412 158.172C72.9343 159.652 73.2214 161.133 73.4941 162.616C71.2501 160.103 68.1379 158.856 65.0237 157.671C64.9795 157.654 64.9565 157.721 64.9993 157.739C68.2426 159.063 71.4733 160.767 73.6707 163.568C74.4367 167.806 75.1072 172.06 75.6875 176.326C74.0467 174.609 72.022 173.454 69.6995 172.888C69.6297 172.87 69.5909 172.974 69.6613 172.994C72.0477 173.683 74.1001 175.021 75.7343 176.892C75.7461 176.906 75.7586 176.912 75.7718 176.921C75.9727 178.422 76.1624 179.924 76.3402 181.429C75.0769 180.35 73.6805 179.528 72.1432 178.892C72.1024 178.876 72.0806 178.939 72.1201 178.956C73.6818 179.622 75.0868 180.582 76.3238 181.744C76.3415 181.761 76.3593 181.759 76.3771 181.765C76.5444 183.195 76.7111 184.626 76.8553 186.06C74.5533 183.28 71.7065 181.268 68.3381 179.966C68.2722 179.94 68.2386 180.041 68.3019 180.069C71.5767 181.496 74.4637 183.756 76.6959 186.541C76.7572 186.618 76.8369 186.63 76.9073 186.608C77.1247 188.805 77.319 191.007 77.4797 193.212C77.4817 193.243 77.5311 193.245 77.5298 193.215C77.404 190.957 77.2466 188.7 77.0648 186.445Z" fill="white"/>
<path d="M68.995 152.267C67.2535 151.068 65.0404 150.556 62.9616 150.382C62.9116 150.378 62.9076 150.452 62.9564 150.459C65.1188 150.781 66.9354 151.565 68.9219 152.411C69.0082 152.449 69.0701 152.319 68.995 152.267Z" fill="white"/>
<path d="M70.2156 179.308C68.8377 178.479 67.2655 178.011 65.6866 177.756C65.6313 177.747 65.6267 177.832 65.6807 177.842C67.2839 178.133 68.704 178.704 70.161 179.416C70.2229 179.447 70.2743 179.344 70.2156 179.308Z" fill="white"/>
<path d="M105.32 161.48C101.133 164.43 97.1135 167.833 93.6977 171.661C90.0565 175.741 87.4008 180.373 85.546 185.513C81.7461 196.043 79.6634 207.451 79.4737 218.642C79.367 224.916 79.9243 231.141 81.264 237.273C81.3127 237.496 81.6454 237.433 81.6118 237.208C79.9743 226.419 80.0343 215.409 81.7936 204.641C83.5199 194.075 86.229 182.58 92.9316 173.993C96.5813 169.318 101.132 165.639 105.631 161.837C105.866 161.637 105.564 161.309 105.32 161.48Z" fill="#EBEBEB"/>
<path d="M80.9512 211.034C80.9512 211.034 84.4 205.214 89.4236 200.182C94.4473 195.149 98.6785 191.573 99.3313 188.244C99.9847 184.916 94.2991 182.465 94.2991 182.465C94.2991 182.465 101.251 183.716 103.154 180.792C105.056 177.869 105.974 160.936 105.974 160.936C105.974 160.936 93.3269 169.984 87.4338 182.667C81.5413 195.35 80.9512 211.034 80.9512 211.034Z" fill="#EBEBEB"/>
<path d="M101.598 165.277C96.2762 170.514 90.9206 176.095 87.7867 182.976C86.7124 185.335 85.7981 187.781 84.9933 190.273C84.9913 190.277 84.9913 190.281 84.9893 190.285C84.8279 190.785 84.6639 191.284 84.5118 191.788C84.4966 191.813 84.4887 191.841 84.4861 191.871C82.9369 197.009 81.8415 202.323 80.8931 207.514C80.8871 207.547 80.9378 207.565 80.9444 207.53C81.4891 204.888 82.0905 202.221 82.7617 199.561C82.7854 199.561 82.8111 199.557 82.8374 199.546C83.913 199.093 84.9952 198.809 86.1565 198.702C86.2322 198.695 86.2263 198.563 86.1492 198.567C85.0288 198.621 83.9315 198.818 82.8664 199.167C83.479 196.768 84.1449 194.377 84.8938 192.02C87.3355 191.42 89.8839 191.097 92.3947 191.037C92.4204 191.036 92.425 190.997 92.398 190.996C89.8667 190.878 87.4876 191.096 85.0222 191.624C85.1527 191.219 85.2883 190.817 85.4234 190.414C87.072 190.038 88.7279 189.721 90.4147 189.566C90.445 189.564 90.4424 189.512 90.4121 189.512C88.7602 189.557 87.1319 189.731 85.5248 190.108C86.2131 188.068 86.9567 186.056 87.7814 184.096C88.4638 182.475 89.2752 180.936 90.1691 179.451C91.5213 179.144 92.832 178.852 94.2179 178.727C94.2561 178.724 94.2521 178.663 94.2146 178.66C92.9565 178.578 91.6464 178.673 90.4292 179.035C91.0945 177.958 91.7933 176.904 92.5416 175.882C95.3778 175.252 98.2529 174.668 101.154 175.214C101.204 175.223 101.223 175.139 101.173 175.126C98.4116 174.398 95.6702 174.819 92.9223 175.363C93.222 174.963 93.5289 174.569 93.8385 174.176C95.5793 173.637 97.311 173.375 99.1375 173.342C99.175 173.341 99.1809 173.287 99.1421 173.283C97.475 173.123 95.8125 173.285 94.2014 173.722C96.5463 170.803 99.1362 168.062 101.696 165.35C101.816 165.226 101.724 165.153 101.598 165.277Z" fill="white"/>
<path d="M101.456 176.819C100.624 176.73 99.7775 176.637 98.941 176.731C98.8396 176.743 98.8481 176.908 98.9502 176.911C99.7828 176.935 100.615 176.873 101.448 176.918C101.512 176.922 101.52 176.826 101.456 176.819Z" fill="white"/>
<path d="M92.3537 193.245C91.0245 193.229 89.6973 193.587 88.4557 194.029C88.4248 194.041 88.4419 194.093 88.4742 194.085C89.7612 193.778 91.0634 193.653 92.3636 193.438C92.4703 193.421 92.465 193.247 92.3537 193.245Z" fill="white"/>
<path d="M89.6254 187.571C89.0859 187.542 88.5024 187.637 87.9708 187.72C87.9161 187.729 87.9194 187.818 87.9761 187.82C88.5136 187.829 89.105 187.843 89.6346 187.742C89.7281 187.723 89.7242 187.576 89.6254 187.571Z" fill="white"/>
<path d="M43.8763 179.449C47.9462 180.867 51.9832 182.69 55.6309 184.997C59.519 187.455 62.7366 190.589 65.4233 194.318C70.9271 201.961 75.244 210.71 77.9795 219.723C79.5128 224.776 80.4982 229.943 80.8282 235.215C80.84 235.407 80.5562 235.433 80.5318 235.242C79.3679 226.132 76.78 217.236 72.8722 208.928C69.0381 200.777 64.1942 192.102 56.7888 186.705C52.7565 183.767 48.2255 181.844 43.7077 179.809C43.4713 179.703 43.6399 179.367 43.8763 179.449Z" fill="#EBEBEB"/>
<path d="M75.029 213.909C75.029 213.909 70.8952 209.997 65.6694 207.088C60.4428 204.179 56.1938 202.264 54.8975 199.722C53.6013 197.179 57.6369 193.879 57.6369 193.879C57.6369 193.879 52.2991 196.501 50.0853 194.576C47.8715 192.651 43.2227 179.16 43.2227 179.16C43.2227 179.16 55.545 183.553 63.2389 192.453C70.9334 201.353 75.029 213.909 75.029 213.909Z" fill="#EBEBEB"/>
<path d="M74.3868 211.126C68.2237 199.534 60.0002 189.048 48.7318 182.127C48.7265 182.124 48.7219 182.132 48.7265 182.134C51.6931 184.028 54.4266 186.213 56.9743 188.601C54.6934 188.538 52.3716 188.902 50.3495 190.003C50.3047 190.027 50.3369 190.088 50.383 190.072C52.637 189.308 54.802 188.806 57.1996 188.918C57.2325 188.919 57.2536 188.902 57.2767 188.889C57.6765 189.269 58.071 189.655 58.4616 190.044C57.276 190.095 56.0766 190.263 54.9213 190.515C54.8903 190.521 54.8989 190.57 54.9305 190.564C56.1806 190.321 57.4011 190.237 58.6697 190.255C60.7347 192.334 62.6586 194.558 64.4818 196.867C63.6585 196.747 62.7956 196.817 62.0065 197.048C61.9479 197.065 61.9631 197.149 62.0243 197.141C62.9221 197.028 63.7757 197.042 64.6669 197.105C65.0041 197.535 65.3453 197.963 65.676 198.399C63.1421 198.245 60.6596 198.49 58.1975 199.127C58.1612 199.136 58.1711 199.192 58.2087 199.185C60.7485 198.686 63.3094 198.526 65.89 198.685C66.2042 199.103 66.5019 199.532 66.8102 199.955C65.2986 199.909 63.8324 200.098 62.3583 200.466C62.3023 200.479 62.3181 200.568 62.3754 200.555C63.8916 200.209 65.4336 200.121 66.9834 200.195C68.3093 202.025 69.5792 203.896 70.7997 205.79C70.1536 205.657 69.4752 205.729 68.8455 205.907C68.8119 205.917 68.8211 205.965 68.856 205.961C69.5812 205.876 70.2583 205.969 70.9703 206.061C72.0677 207.773 73.1288 209.502 74.1451 211.241C74.2321 211.389 74.4685 211.28 74.3868 211.126Z" fill="white"/>
<path d="M64.8 201.511C63.5952 201.407 62.3708 201.597 61.2201 201.95C61.1872 201.96 61.1951 202.01 61.2306 202.003C62.4156 201.785 63.59 201.702 64.7907 201.638C64.8691 201.634 64.8843 201.519 64.8 201.511Z" fill="white"/>
<path d="M54.0518 187.385C53.5071 187.323 52.9387 187.394 52.4005 187.481C52.3367 187.492 52.3564 187.586 52.4196 187.58C52.9624 187.522 53.4979 187.542 54.0413 187.526C54.1295 187.523 54.144 187.396 54.0518 187.385Z" fill="white"/>
<path d="M90.9223 252.239H63.1074L67.0733 223.128L68.0869 215.664H85.9427L86.9558 223.128L90.9223 252.239Z" fill="#DBDBDB"/>
<path d="M86.9567 223.128H67.0742L68.0879 215.664H85.9437L86.9567 223.128Z" fill="#C7C7C7"/>
<path d="M88.4956 213.075H65.5332V219.396H88.4956V213.075Z" fill="#DBDBDB"/>
<path d="M45.4238 252.239L95.4884 252.078L145.553 252.02L245.682 251.909L345.811 252.02L395.876 252.078L445.941 252.239L395.876 252.4L345.811 252.459L245.682 252.568L145.553 252.458L95.4884 252.399L45.4238 252.239Z" fill="#0D0E0F"/>
<path d="M247 301.431C351.309 301.431 435.868 292.147 435.868 280.694C435.868 269.241 351.309 259.957 247 259.957C142.692 259.957 58.1328 269.241 58.1328 280.694C58.1328 292.147 142.692 301.431 247 301.431Z" fill="#EBEBEB"/>
<path d="M203.035 277.257C201.5 277.778 157.491 277.933 155.809 276.877C155.169 276.479 154.773 270.058 154.514 262.286C154.458 260.608 154.41 258.874 154.371 257.114L150.803 233.594L180.222 233.405L182.999 256.93L182.886 262.104C182.886 262.104 199.762 269.597 201.483 270.954C203.195 272.311 204.571 276.737 203.035 277.257Z" fill="#FFD4CB"/>
<path d="M203.035 277.257C201.499 277.778 157.491 277.933 155.809 276.877C155.032 276.389 154.608 267.012 154.371 257.114L182.999 256.929L182.886 262.104C182.886 262.104 199.762 269.596 201.482 270.954C203.195 272.311 204.571 276.737 203.035 277.257Z" fill="white"/>
<path d="M203.035 277.257C201.5 277.778 157.492 277.933 155.809 276.877C155.169 276.479 154.773 270.058 154.514 262.286L182.886 262.104C182.886 262.104 199.762 269.596 201.483 270.954C203.195 272.311 204.571 276.737 203.035 277.257Z" fill="#A6A6A6"/>
<path d="M202.398 275.496C195.021 275.34 165.249 275.411 157.945 275.819C157.886 275.822 157.886 275.862 157.945 275.865C165.254 276.179 195.024 275.867 202.399 275.617C202.554 275.612 202.554 275.499 202.398 275.496Z" fill="#0D0E0F"/>
<path d="M198.646 269.377C196.897 269.312 195.19 270.151 194.239 271.198C193.326 272.204 192.547 273.617 192.605 275.151C192.607 275.194 192.688 275.196 192.693 275.15C193.104 272.256 195.721 269.706 198.646 269.47C198.706 269.465 198.706 269.38 198.646 269.377Z" fill="#0D0E0F"/>
<path d="M185.75 262.829C182.797 262.799 179.378 263.855 177.551 266.281C177.481 266.375 177.614 266.474 177.702 266.429C180.366 265.041 182.9 264.005 185.802 263.193C186.007 263.136 185.962 262.831 185.75 262.829Z" fill="#0D0E0F"/>
<path d="M188.033 263.711C185.08 263.68 181.661 264.737 179.834 267.163C179.764 267.258 179.898 267.357 179.985 267.311C182.649 265.923 185.183 264.887 188.085 264.076C188.289 264.018 188.245 263.713 188.033 263.711Z" fill="#0D0E0F"/>
<path d="M190.315 264.594C187.362 264.564 183.942 265.62 182.116 268.046C182.045 268.139 182.18 268.239 182.267 268.194C184.931 266.806 187.465 265.769 190.367 264.958C190.572 264.901 190.526 264.596 190.315 264.594Z" fill="#0D0E0F"/>
<path d="M192.597 265.476C189.645 265.445 186.225 266.502 184.399 268.928C184.328 269.022 184.462 269.122 184.55 269.076C187.214 267.688 189.748 266.652 192.649 265.841C192.854 265.783 192.809 265.478 192.597 265.476Z" fill="#0D0E0F"/>
<path d="M159.798 268.791C156.486 268.812 156.513 273.971 159.831 273.95C163.144 273.928 163.117 268.77 159.798 268.791Z" fill="#0D0E0F"/>
<path d="M188.914 254.923C187.415 253.686 185.536 254.907 184.619 256.199C183.134 258.293 182.119 261.224 181.963 263.775C181.96 263.838 182.007 263.863 182.055 263.859C182.119 264.071 182.369 264.248 182.587 264.096C184.684 262.632 187.107 261.327 188.693 259.261C189.619 258.054 190.331 256.093 188.914 254.923ZM185.313 261.224C184.299 261.969 183.255 262.66 182.269 263.443C182.791 261.967 183.247 260.476 183.917 259.053C184.237 258.375 184.579 257.683 184.989 257.053C185.627 256.074 188.517 253.591 188.822 256.809C188.99 258.583 186.522 260.335 185.313 261.224Z" fill="#0D0E0F"/>
<path d="M174.63 264.897C177.202 265.284 179.852 264.541 182.376 264.139C182.638 264.098 182.696 263.796 182.595 263.599C182.633 263.568 182.65 263.516 182.604 263.474C180.727 261.744 177.967 260.337 175.448 259.86C173.893 259.566 171.695 259.992 171.47 261.924C171.258 263.752 173.128 264.671 174.63 264.897ZM172.841 263.219C170.834 260.688 174.635 260.47 175.772 260.733C176.503 260.902 177.228 261.163 177.928 261.429C179.395 261.989 180.756 262.747 182.153 263.448C180.901 263.568 179.67 263.796 178.424 263.963C176.939 264.163 173.948 264.615 172.841 263.219Z" fill="#0D0E0F"/>
<path d="M107.572 124.874C107.572 124.874 141.737 183.112 142.652 187.201C144.058 193.484 151.509 255.534 151.509 255.534L187.058 254.893C187.058 254.893 180.931 200.185 175.128 182.161C170.949 169.178 140.797 126.121 140.797 126.121L107.572 124.874Z" fill="#0D0E0F"/>
<path d="M183.825 249.431C178.719 249.394 160.629 249.19 153.833 249.825C153.781 249.83 153.783 249.916 153.834 249.924C156.173 250.26 178.723 249.736 183.827 249.572C183.923 249.569 183.921 249.432 183.825 249.431Z" fill="#0D0E0F"/>
<path d="M113.404 130.218C115.643 133.737 118.005 137.182 120.294 140.67C122.584 144.159 124.866 147.654 127.118 151.168C131.618 158.191 136.002 165.287 140.305 172.428C142.323 175.777 144.245 179.156 145.631 182.81C147.003 186.428 147.938 190.192 148.63 193.987C149.326 197.811 149.785 201.67 150.218 205.529C150.679 209.637 151.134 213.746 151.592 217.856C152.528 226.263 153.465 234.671 154.401 243.078C154.516 244.11 154.629 245.141 154.732 246.173C154.747 246.325 154.477 246.355 154.458 246.203C153.412 237.849 152.543 229.47 151.593 221.104C151.12 216.939 150.647 212.775 150.174 208.61C149.734 204.738 149.316 200.861 148.717 197.009C148.127 193.225 147.362 189.456 146.213 185.794C145.012 181.967 143.311 178.375 141.298 174.895C137.178 167.776 132.819 160.778 128.458 153.799C124.059 146.759 119.624 139.739 115.024 132.822C114.456 131.968 113.883 131.12 113.294 130.279C113.248 130.213 113.361 130.15 113.404 130.218Z" fill="#0D0E0F"/>
<path d="M118.772 280.693C117.151 280.593 75.3027 263.603 74.1362 261.993C74.0973 261.939 74.0742 261.833 74.0723 261.683C74.0802 260.241 76.9783 255.194 79.4002 248.571C79.5517 248.147 80.6319 246.183 82.1311 243.532C86.2517 236.253 93.5431 223.784 93.5431 223.784L120.897 234.674L107.804 254.313L105.766 259.065C105.766 259.065 118.604 272.36 119.688 274.262C120.766 276.164 120.387 280.784 118.772 280.693Z" fill="#FFD4CB"/>
<path d="M118.772 280.693C117.151 280.593 75.3027 263.603 74.1362 261.993C74.0973 261.939 74.0742 261.833 74.0723 261.683C74.0802 260.241 76.9783 255.194 79.4002 248.571C79.5517 248.147 80.6319 246.183 82.1311 243.532L107.805 254.313L105.767 259.065C105.767 259.065 118.605 272.36 119.689 274.262C120.766 276.164 120.387 280.784 118.772 280.693Z" fill="white"/>
<path d="M118.769 280.689C117.15 280.595 75.3005 263.603 74.1366 261.991C73.692 261.382 75.5633 255.655 79.3967 248.573L105.766 259.069C105.766 259.069 118.604 272.358 119.691 274.263C120.768 276.164 120.387 280.784 118.769 280.689Z" fill="#A6A6A6"/>
<path d="M118.838 278.817C112.057 275.9 84.4336 264.774 77.5097 262.406C77.4537 262.387 77.4385 262.425 77.4925 262.449C84.1503 265.488 111.863 276.389 118.793 278.929C118.939 278.983 118.981 278.878 118.838 278.817Z" fill="#0D0E0F"/>
<path d="M117.652 271.735C116.055 271.017 114.159 271.152 112.886 271.766C111.662 272.356 110.411 273.373 109.891 274.815C109.876 274.857 109.951 274.888 109.974 274.848C111.439 272.32 114.819 270.94 117.619 271.821C117.675 271.839 117.708 271.76 117.652 271.735Z" fill="#0D0E0F"/>
<path d="M108.148 260.818C105.423 259.679 101.857 259.373 99.2557 260.935C99.1549 260.996 99.2425 261.138 99.3406 261.129C102.33 260.844 105.066 260.836 108.06 261.175C108.271 261.198 108.343 260.899 108.148 260.818Z" fill="#0D0E0F"/>
<path d="M109.935 262.493C107.21 261.355 103.644 261.049 101.043 262.611C100.942 262.672 101.03 262.814 101.128 262.804C104.117 262.519 106.854 262.511 109.847 262.85C110.059 262.874 110.13 262.575 109.935 262.493Z" fill="#0D0E0F"/>
<path d="M111.721 264.17C108.995 263.031 105.43 262.725 102.828 264.287C102.727 264.348 102.815 264.491 102.913 264.481C105.902 264.196 108.639 264.188 111.632 264.527C111.843 264.551 111.916 264.251 111.721 264.17Z" fill="#0D0E0F"/>
<path d="M113.505 265.845C110.78 264.707 107.214 264.401 104.613 265.963C104.512 266.024 104.599 266.166 104.698 266.157C107.688 265.872 110.424 265.864 113.418 266.202C113.628 266.226 113.701 265.927 113.505 265.845Z" fill="#0D0E0F"/>
<path d="M81.8601 256.589C78.7815 255.363 76.8754 260.156 79.9592 261.383C83.0385 262.609 84.9447 257.817 81.8601 256.589Z" fill="#0D0E0F"/>
<path d="M114.042 254.678C113.115 252.968 110.917 253.392 109.583 254.247C107.423 255.629 105.384 257.964 104.285 260.27C104.258 260.326 104.293 260.367 104.339 260.383C104.318 260.603 104.484 260.861 104.743 260.802C107.236 260.233 109.97 259.934 112.214 258.616C113.523 257.846 114.918 256.295 114.042 254.678ZM108.345 259.166C107.126 259.475 105.899 259.723 104.692 260.078C105.729 258.906 106.709 257.695 107.863 256.628C108.414 256.12 108.99 255.607 109.606 255.178C110.564 254.509 114.172 253.294 113.25 256.392C112.741 258.1 109.798 258.796 108.345 259.166Z" fill="#0D0E0F"/>
<path d="M97.0672 258.554C99.3067 259.88 102.041 260.187 104.531 260.764C104.789 260.824 104.956 260.567 104.937 260.346C104.983 260.331 105.019 260.29 104.992 260.233C103.899 257.923 101.868 255.582 99.7117 254.193C98.3799 253.336 96.1833 252.904 95.2519 254.611C94.37 256.226 95.7597 257.781 97.0672 258.554ZM96.0377 256.327C95.1254 253.226 98.7297 254.453 99.6854 255.124C100.3 255.555 100.874 256.069 101.423 256.58C102.574 257.65 103.551 258.865 104.585 260.039C103.379 259.681 102.153 259.429 100.934 259.115C99.4825 258.742 96.5403 258.036 96.0377 256.327Z" fill="#0D0E0F"/>
<path d="M109.915 253.214L79.2969 240.825C79.2969 240.825 117.26 184.893 117.541 180.73C117.789 177.042 101.115 144.953 100.458 135.6C99.7485 125.508 104.599 117.696 109.928 112.848L141.515 126.302C141.515 126.302 138.181 131.646 132.929 134.621C132.929 134.621 149.127 171.714 148.209 183.118C147.285 194.585 109.915 253.214 109.915 253.214Z" fill="#0D0E0F"/>
<path d="M111.275 247.379C106.847 245.472 108.145 245.956 103.695 244.098C101.518 243.189 87.2063 237.228 85.0274 236.737C84.9794 236.726 84.9484 236.802 84.9906 236.828C86.8954 237.997 101.308 243.707 103.502 244.574C107.986 246.346 106.718 245.789 111.221 247.51C111.306 247.542 111.358 247.415 111.275 247.379Z" fill="#0D0E0F"/>
<path d="M138.128 133.942C134.838 134.651 131.61 135.816 128.509 137.068C128.387 137.118 128.444 137.299 128.574 137.26C131.803 136.316 135.087 135.433 138.257 134.317C138.506 134.23 138.381 133.888 138.128 133.942Z" fill="#0D0E0F"/>
<path d="M134.382 132.64C134.071 133.184 133.806 133.756 133.571 134.335C133.388 134.785 133.154 135.266 133.156 135.757C133.157 135.852 133.285 135.875 133.343 135.817C133.71 135.455 133.905 134.927 134.137 134.476C134.406 133.954 134.686 133.437 134.94 132.907C135.108 132.556 134.574 132.304 134.382 132.64Z" fill="#0D0E0F"/>
<path d="M134.764 129.664C134.957 129.177 135.152 128.691 135.357 128.208C135.568 127.709 135.814 127.216 135.986 126.702C136.013 126.621 136.142 126.676 136.109 126.758C135.916 127.245 135.791 127.766 135.636 128.267C135.48 128.771 135.316 129.271 135.15 129.771C134.841 130.703 134.462 131.627 134.063 132.525C134.579 132.519 135.111 132.496 135.58 132.261C136.09 132.007 136.399 131.464 136.65 130.974C136.929 130.429 137.185 129.872 137.471 129.332C137.788 128.734 138.139 128.142 138.348 127.495C138.374 127.413 138.5 127.468 138.471 127.55C137.995 128.886 137.527 130.221 136.788 131.452C136.497 131.936 136.262 132.44 135.726 132.629C135.151 132.832 134.522 132.793 133.923 132.749C133.849 132.77 133.754 132.722 133.78 132.632C134.062 131.636 134.38 130.627 134.764 129.664Z" fill="#0D0E0F"/>
<path d="M133.423 135.829C134.545 138.213 135.532 140.589 136.582 142.965C137.607 145.287 138.568 147.636 139.5 149.996C141.383 154.766 143.071 159.622 144.551 164.533C145.283 166.964 145.958 169.411 146.568 171.875C147.179 174.345 147.776 176.84 148.03 179.378C148.284 181.922 148.103 184.439 147.396 186.9C146.678 189.397 145.732 191.578 144.608 193.913C143.922 195.341 143.685 195.148 144.018 194.427C144.961 192.383 147.429 186.187 147.25 180.978C147.164 178.465 146.649 175.99 146.082 173.548C145.504 171.055 144.851 168.58 144.139 166.122C142.736 161.28 141.07 156.533 139.355 151.794C138.395 149.139 137.364 146.511 136.389 143.862C135.407 141.193 134.395 138.791 133.306 135.876C133.277 135.8 133.388 135.755 133.423 135.829Z" fill="#0D0E0F"/>
<path d="M110.175 127.952C110.723 127.749 111.484 128.086 112.043 128.179C112.761 128.3 113.486 128.373 114.213 128.398C114.93 128.423 115.652 128.394 116.365 128.324C117.079 128.255 117.807 128.166 118.426 127.778C119.471 127.125 120.346 125.974 121.054 124.982C121.832 123.893 122.639 122.64 123.103 121.378C123.131 121.301 123.243 121.354 123.218 121.429C122.988 122.165 122.816 122.907 122.523 123.626C122.247 124.302 121.891 124.949 121.513 125.572C120.807 126.737 119.997 127.979 118.786 128.672C117.515 129.398 115.879 129.355 114.462 129.273C113.643 129.225 112.826 129.117 112.023 128.948C111.443 128.825 110.468 128.732 110.098 128.222C110.032 128.132 110.067 127.992 110.175 127.952Z" fill="#0D0E0F"/>
<path d="M88.0373 234.978C93.0702 227.346 98.0096 219.652 102.86 211.902C107.723 204.132 112.496 196.305 117.203 188.439C118.329 186.558 119.63 184.678 120.355 182.594C121.143 180.329 120.695 178.135 119.981 175.918C118.672 171.854 117.041 167.898 115.28 164.01C113.515 160.111 111.614 156.276 109.743 152.426C107.888 148.608 105.914 144.778 104.507 140.766C103.164 136.933 102.652 132.958 103.683 128.983C104.707 125.039 106.921 121.497 109.233 118.192C109.843 117.32 110.464 116.456 111.076 115.586C111.122 115.52 111.222 115.6 111.174 115.666C108.626 119.112 106.141 122.759 104.648 126.805C103.909 128.804 103.431 130.908 103.384 133.044C103.336 135.211 103.743 137.361 104.38 139.424C105.618 143.437 107.574 147.237 109.396 151.007C111.259 154.86 113.171 158.691 114.968 162.577C116.775 166.487 118.465 170.456 119.854 174.536C120.473 176.353 121.162 178.254 121.122 180.2C121.077 182.332 120.061 184.251 119.01 186.048C114.431 193.873 109.677 201.6 104.865 209.282C100.034 216.994 95.1081 224.646 90.1056 232.246C89.4746 233.204 88.8422 234.162 88.2093 235.119C88.1309 235.236 87.9596 235.096 88.0373 234.978Z" fill="#0D0E0F"/>
<path d="M143.268 90.7294C146.119 97.0001 160.52 105.641 167.266 106.569C172.119 107.237 186.854 107.467 191.907 106.694C197.825 105.789 193.303 89.7784 189.805 90.1883C180.189 91.3149 172.023 92.5689 169.456 92.5689C166.322 92.5689 149.359 87.1133 147.315 86.3457C142.313 84.4667 141.651 87.1727 143.268 90.7294Z" fill="#FFD4CB"/>
<path d="M143.357 92.3894C146.966 97.7413 158.965 106.49 158.965 106.49L160.63 102.794L166.14 90.5737C166.14 90.5737 155.121 87.0896 147.87 85.5373C146.891 85.3267 146.027 85.2007 145.276 85.167C140.646 84.9169 140.245 87.7852 143.357 92.3894Z" fill="#FF0A62"/>
<path d="M143.357 92.3894C146.966 97.7413 158.965 106.49 158.965 106.49L160.63 102.794C156.155 97.5895 149.249 89.7019 145.276 85.167C140.646 84.9169 140.245 87.7852 143.357 92.3894Z" fill="#0D0E0F"/>
<path d="M156.801 104.02C157.715 101.774 161.789 92.7121 162.8 90.8107C162.87 90.6787 162.97 90.6892 162.914 90.8351C160.335 97.6271 157.898 101.891 156.89 104.05C156.865 104.104 156.778 104.077 156.801 104.02Z" fill="#0D0E0F"/>
<path d="M188.041 90.3632C193.894 89.5936 201.133 88.2782 207.264 90.8859C208.466 91.3974 208.902 92.2956 208.902 92.2956C211.67 93.4157 211.974 95.0617 211.974 95.0617C214.234 96.8958 214.313 98.6224 214.313 98.6224C214.313 98.6224 217.549 99.9728 217.059 102.068C216.517 104.42 212.078 102.063 208.847 102.263C201.442 102.72 191.045 105.446 188.923 105.791L188.041 90.3632Z" fill="#FFD4CB"/>
<path d="M200.751 97.278C202.933 97.187 205.073 97.0404 207.256 97.2457C209.651 97.4707 211.918 98.0905 214.241 98.6634C214.314 98.6812 214.346 98.5822 214.278 98.5531C210.235 96.849 205.053 96.4015 200.746 97.179C200.641 97.1975 200.641 97.2827 200.751 97.278Z" fill="#0D0E0F"/>
<path d="M199.827 92.8401C201.955 92.8692 205.694 92.945 211.952 95.1296C211.972 95.1369 211.991 95.1046 211.97 95.0933C208.095 93.1338 204.122 92.4368 199.829 92.7385C199.695 92.7477 199.686 92.8381 199.827 92.8401Z" fill="#0D0E0F"/>
<path d="M199.374 90.4457C202.99 90.6338 205.247 91.2106 208.884 92.3062C208.904 92.3121 208.921 92.2785 208.899 92.2692C204.896 90.5895 203.253 90.4344 199.363 90.3209C199.23 90.3163 199.233 90.4384 199.374 90.4457Z" fill="#0D0E0F"/>
<path d="M199.96 103.38C199.02 103.823 199.245 104.32 201.045 104.738C202.865 105.164 210.321 105.279 210.058 107.888C209.798 110.508 199.249 110.172 196.306 109.247C193.359 108.328 188.924 105.791 188.924 105.791C190.989 105.442 195.918 104.117 199.96 103.38Z" fill="#FFD4CB"/>
<path d="M151.101 100.726C151.055 101.853 150.945 103.001 150.787 104.139C150.802 104.098 150.819 104.058 150.835 104.017C151.054 103.423 151.267 102.813 151.533 102.239C151.547 102.209 151.601 102.217 151.594 102.254C151.478 102.877 151.26 103.503 151.023 104.091C150.91 104.372 150.794 104.652 150.673 104.93C150.592 105.437 150.501 105.94 150.399 106.436C150.204 107.38 149.314 111.395 149.112 112.073C149.069 112.216 148.9 112.183 148.911 112.024C148.959 111.285 149.706 107.103 149.856 106.157C150.146 104.339 150.545 102.485 151.03 100.709C151.041 100.666 151.102 100.686 151.101 100.726Z" fill="#0D0E0F"/>
<path d="M144.234 130.729C142.477 131.637 140.211 133.043 130.003 131.029C129.364 130.899 128.723 130.742 128.08 130.551C118.506 127.669 107.024 116.388 106.377 115.593C106.377 115.593 121.581 90.8886 141.033 83.123C143.437 82.1634 147.417 84.014 149.62 86.3174C150.408 87.1404 152.115 93.2019 151.459 98.1142C150.797 103.019 146.003 129.831 144.234 130.729Z" fill="#FF0A62"/>
<path d="M142.876 97.8893C142.932 98.4199 142.89 98.9367 142.825 99.4502C142.748 99.9623 142.647 100.471 142.448 100.966C142.392 100.436 142.434 99.9188 142.499 99.4053C142.577 98.8931 142.678 98.3843 142.876 97.8893Z" fill="white"/>
<path d="M136.245 114.713C136.301 115.243 136.259 115.76 136.194 116.274C136.117 116.786 136.016 117.295 135.818 117.79C135.761 117.26 135.803 116.743 135.868 116.229C135.947 115.717 136.047 115.208 136.245 114.713Z" fill="white"/>
<path d="M124.974 101.998C125.03 102.529 124.987 103.046 124.923 103.559C124.846 104.071 124.745 104.58 124.546 105.075C124.489 104.545 124.532 104.028 124.597 103.514C124.675 103.002 124.776 102.493 124.974 101.998Z" fill="white"/>
<path d="M147.22 113.859C147.276 114.39 147.233 114.907 147.169 115.42C147.092 115.932 146.991 116.441 146.792 116.936C146.736 116.406 146.778 115.889 146.843 115.375C146.921 114.863 147.021 114.354 147.22 113.859Z" fill="white"/>
<path d="M132.746 99.8158C133.276 99.7597 133.791 99.802 134.304 99.8666C134.816 99.9439 135.323 100.045 135.817 100.244C135.288 100.301 134.772 100.259 134.259 100.193C133.748 100.115 133.241 100.014 132.746 99.8158Z" fill="white"/>
<path d="M119.955 111.971C120.485 111.915 121 111.957 121.513 112.022C122.024 112.099 122.532 112.2 123.026 112.399C122.496 112.456 121.98 112.414 121.468 112.348C120.956 112.271 120.449 112.17 119.955 111.971Z" fill="white"/>
<path d="M135.004 125.126C135.533 125.069 136.049 125.112 136.562 125.176C137.073 125.254 137.581 125.355 138.075 125.554C137.545 125.611 137.029 125.568 136.517 125.503C136.006 125.425 135.498 125.324 135.004 125.126Z" fill="white"/>
<path d="M116.012 120.347C116.541 120.291 117.057 120.333 117.57 120.398C118.081 120.475 118.589 120.576 119.083 120.775C118.554 120.832 118.038 120.79 117.525 120.725C117.014 120.646 116.506 120.545 116.012 120.347Z" fill="white"/>
<path d="M142.779 86.0653C143.309 86.0092 143.825 86.0515 144.338 86.1162C144.849 86.1934 145.356 86.2943 145.85 86.4937C145.32 86.5504 144.805 86.5082 144.292 86.4428C143.781 86.3643 143.273 86.2633 142.779 86.0653Z" fill="white"/>
<path d="M139.061 90.2755C138.726 90.69 138.332 91.0259 137.924 91.3434C137.508 91.651 137.078 91.9394 136.588 92.1479C136.922 91.7328 137.317 91.3968 137.725 91.08C138.141 90.7731 138.572 90.4847 139.061 90.2755Z" fill="white"/>
<path d="M118.778 102.239C118.443 102.653 118.049 102.989 117.64 103.307C117.225 103.614 116.795 103.903 116.305 104.112C116.639 103.697 117.034 103.361 117.442 103.044C117.858 102.736 118.289 102.449 118.778 102.239Z" fill="white"/>
<path d="M144.1 107.642C143.765 108.057 143.371 108.393 142.963 108.71C142.547 109.018 142.117 109.306 141.627 109.515C141.962 109.099 142.356 108.763 142.764 108.447C143.181 108.14 143.611 107.852 144.1 107.642Z" fill="white"/>
<path d="M127.702 117.99C127.367 118.404 126.973 118.74 126.564 119.057C126.149 119.365 125.719 119.653 125.229 119.862C125.563 119.447 125.958 119.111 126.366 118.794C126.782 118.488 127.212 118.199 127.702 117.99Z" fill="white"/>
<path d="M150.384 93.5016C150.049 93.9161 149.655 94.252 149.247 94.5695C148.831 94.877 148.401 95.1654 147.91 95.374C148.245 94.9589 148.639 94.6229 149.048 94.3061C149.465 93.9992 149.895 93.7108 150.384 93.5016Z" fill="white"/>
<path d="M150.042 105.496C149.629 105.16 149.294 104.765 148.977 104.356C148.67 103.939 148.382 103.508 148.174 103.017C148.588 103.353 148.923 103.748 149.24 104.157C149.545 104.574 149.833 105.005 150.042 105.496Z" fill="white"/>
<path d="M113.49 113.756C113.076 113.42 112.741 113.025 112.424 112.616C112.117 112.199 111.829 111.768 111.621 111.277C112.035 111.613 112.371 112.008 112.687 112.417C112.993 112.834 113.281 113.265 113.49 113.756Z" fill="white"/>
<path d="M145.6 123.588C145.186 123.252 144.851 122.858 144.534 122.448C144.227 122.032 143.939 121.601 143.73 121.11C144.145 121.445 144.48 121.841 144.796 122.25C145.103 122.666 145.39 123.098 145.6 123.588Z" fill="white"/>
<path d="M129.507 95.57C129.094 95.234 128.758 94.8394 128.442 94.4302C128.135 94.0137 127.847 93.5827 127.639 93.0917C128.053 93.427 128.388 93.8223 128.704 94.2315C129.011 94.6479 129.299 95.0789 129.507 95.57Z" fill="white"/>
<path d="M129.792 129.183C129.379 128.847 129.044 128.453 128.727 128.043C128.42 127.627 128.132 127.196 127.924 126.705C128.338 127.04 128.673 127.435 128.99 127.845C129.295 128.261 129.583 128.692 129.792 129.183Z" fill="white"/>
<path d="M132.527 109.355C132.113 109.019 131.778 108.624 131.461 108.215C131.154 107.798 130.866 107.368 130.658 106.876C131.073 107.212 131.408 107.607 131.724 108.016C132.03 108.433 132.318 108.864 132.527 109.355Z" fill="white"/>
<path d="M146.044 92.8937C143.566 92.4317 141.23 87.2909 140.936 83.8325C140.917 83.5956 142.096 81.7126 143.421 79.3564C144.219 77.9236 145.075 76.3092 145.749 74.78C145.886 74.4652 146.698 75.5146 146.698 75.5146L148.463 76.8669L154.296 81.3483C154.296 81.3483 151.941 84.1381 150.782 86.8118C150.687 87.0362 150.618 87.2533 150.571 87.4685C150.562 87.4988 150.554 87.5371 150.539 87.5787C150.207 88.8571 148.44 93.3385 146.044 92.8937Z" fill="#FFD4CB"/>
<path d="M150.57 87.4692C150.561 87.4995 150.554 87.5378 150.539 87.5794C150.22 87.4896 149.886 87.3623 149.532 87.1959C143.149 84.1982 145.964 75.6288 145.964 75.6288L148.463 76.8676L154.296 81.349C154.296 81.349 151.941 84.1388 150.782 86.8125C150.687 87.0369 150.618 87.254 150.57 87.4692Z" fill="#0D0E0F"/>
<path d="M160.99 63.0834C160.99 63.0834 163.906 64.9393 163.925 68.238C163.944 71.5373 162.633 74.7647 162.329 74.8802C162.024 74.9957 160.99 63.0834 160.99 63.0834Z" fill="#0D0E0F"/>
<path d="M146.516 64.7955C144.763 68.2638 144.851 79.1841 147.041 81.9984C150.215 86.0778 156.33 87.4836 160.021 83.4504C163.599 79.5405 163.232 65.3109 160.701 62.659C156.973 58.7532 149.107 59.6725 146.516 64.7955Z" fill="#FFD4CB"/>
<path d="M155.816 73.5451C155.809 73.5167 155.759 73.5814 155.761 73.6124C155.802 74.3563 155.723 75.2149 155.057 75.4776C155.036 75.4855 155.039 75.5231 155.064 75.5192C155.881 75.3839 155.973 74.2427 155.816 73.5451Z" fill="#0D0E0F"/>
<path d="M155.134 72.7828C153.937 72.7195 153.899 75.1225 155.008 75.1813C156.099 75.2387 156.137 72.8356 155.134 72.7828Z" fill="#0D0E0F"/>
<path d="M159.88 73.5174C159.886 73.489 159.937 73.5537 159.936 73.5841C159.9 74.3279 159.985 75.1859 160.653 75.4439C160.674 75.4519 160.671 75.4895 160.647 75.4855C159.829 75.3562 159.727 74.2163 159.88 73.5174Z" fill="#0D0E0F"/>
<path d="M160.555 72.7505C161.751 72.6785 161.807 75.0809 160.699 75.1476C159.608 75.2136 159.552 72.8105 160.555 72.7505Z" fill="#0D0E0F"/>
<path d="M154.383 70.954C154.711 70.8767 155.001 70.7507 155.317 70.6411C155.674 70.517 155.971 70.455 156.209 70.1402C156.336 69.9712 156.289 69.6637 156.137 69.5237C155.782 69.199 155.308 69.2419 154.872 69.3739C154.399 69.5171 154.071 69.7481 153.795 70.1573C153.526 70.554 153.95 71.0556 154.383 70.954Z" fill="#0D0E0F"/>
<path d="M161.387 72.0192C161.056 71.9598 160.759 71.8495 160.438 71.7565C160.075 71.6515 159.775 71.6053 159.521 71.3031C159.385 71.1407 159.416 70.8312 159.56 70.684C159.896 70.3408 160.373 70.3586 160.815 70.4668C161.295 70.5843 161.635 70.7982 161.932 71.1922C162.221 71.5737 161.824 72.0977 161.387 72.0192Z" fill="#0D0E0F"/>
<path d="M154.124 80.5972C154.299 80.774 154.473 81.0169 154.742 81.044C155 81.0697 155.305 80.9575 155.543 80.8691C155.567 80.8605 155.59 80.8856 155.575 80.908C155.377 81.1905 154.969 81.3628 154.626 81.2974C154.291 81.2334 154.129 80.9397 154.052 80.6302C154.042 80.5866 154.098 80.5714 154.124 80.5972Z" fill="#0D0E0F"/>
<path d="M158.437 77.4153C158.437 77.4153 158.469 78.5294 158.413 79.0468C158.408 79.095 156.951 78.8092 155.38 79.1557C155.145 79.2079 155.168 79.0158 155.44 78.8904C155.983 78.6389 156.673 78.4033 158.017 78.5479C158.069 78.4086 157.937 76.8338 158.019 76.8365C158.304 76.8431 158.84 77.0965 159.163 77.2312C159.164 74.9086 158.794 72.6052 158.83 70.2926C158.833 70.2101 158.953 70.1982 158.969 70.2741C159.527 72.6613 159.584 75.3337 159.645 77.7321C159.656 78.0311 158.635 77.5262 158.437 77.4153Z" fill="#0D0E0F"/>
<path d="M156.957 78.6508C156.957 78.6508 156.439 79.9563 155.574 80.3068C154.578 80.7107 154.237 79.8071 155.253 79.0092C155.786 78.5908 156.957 78.6508 156.957 78.6508Z" fill="#0D0E0F"/>
<path d="M155.919 80.1035C155.807 80.1893 155.695 80.2619 155.57 80.3081C154.654 80.6777 154.292 79.9451 155.03 79.2059C155.531 79.2455 156.077 79.4303 155.919 80.1035Z" fill="#FF99BA"/>
<path d="M146.011 74.1384C147.215 74.5087 148.601 70.8793 148.993 69.4841C149.338 68.2545 149.737 64.3533 149.795 64.0873C149.854 63.8213 155.046 67.5391 158.082 66.6501C161.118 65.761 163.146 63.0313 163.188 61.7568C163.23 60.483 159.461 57.2484 156.199 57.0827C152.938 56.917 148.523 61.0711 148.523 61.0711C148.523 61.0711 150.022 59.2765 149.972 59.1294C149.921 58.9822 147.813 59.8257 147.426 61.3298C147.426 61.3298 147.843 59.4415 147.683 59.4066C147.524 59.3716 145.887 60.9886 146.256 62.2142C146.256 62.2142 144.362 63.8583 144.187 65.6607C144.011 67.4638 144.596 73.7035 146.011 74.1384Z" fill="#0D0E0F"/>
<path d="M160.239 66.0151C159.316 66.4408 158.392 66.9088 157.371 67.0434C156.269 67.1893 155.125 66.912 154.098 66.5174C153.049 66.1148 152.095 65.53 151.228 64.8152C150.469 64.1889 149.795 63.4332 148.985 62.8755C148.782 62.7362 148.547 63.0286 148.672 63.216C149.903 65.0667 152.081 66.6118 154.18 67.279C156.389 67.9806 158.465 67.4869 160.251 66.0395C160.262 66.0303 160.254 66.0079 160.239 66.0151Z" fill="#0D0E0F"/>
<path d="M147.272 73.815C147.272 73.815 145.403 70.0121 143.717 70.6285C142.03 71.2449 143.068 76.4999 144.789 77.4621C146.51 78.4244 147.429 76.8457 147.429 76.8457L147.272 73.815Z" fill="#FFD4CB"/>
<path d="M144.051 72.1281C144.022 72.1208 144.01 72.1611 144.034 72.1756C145.234 72.8923 145.726 74.1853 146.008 75.4914C145.701 74.9581 145.222 74.6182 144.518 74.9746C144.481 74.9931 144.504 75.0505 144.542 75.0486C145.083 75.0169 145.448 75.166 145.737 75.6412C145.942 75.9778 146.056 76.3811 146.183 76.7527C146.225 76.8768 146.441 76.8471 146.418 76.7085C146.416 76.6979 146.414 76.6873 146.412 76.6768C146.695 75.0459 145.778 72.5623 144.051 72.1281Z" fill="#0D0E0F"/>
<path d="M134.921 90.7883C133.633 98.2648 141.689 123.458 146.876 128.164C154.59 135.162 168.852 139.764 174.02 141.26C176.272 141.913 182.503 126.032 180.225 124.986C175.344 122.745 160.182 118.007 158.754 116.79C157.327 115.573 148.614 103.011 144.741 95.7673C139.544 86.0475 135.572 87.0065 134.921 90.7883Z" fill="#FFD4CB"/>
<path d="M176.388 123.588C176.388 123.588 183.114 125.306 187.459 126.636C189.884 127.378 193.927 129.022 195.459 130.384C197.75 132.42 206.037 142.404 203.664 144.47C201.516 146.34 195.484 136.856 195.484 136.856C195.484 136.856 202.415 145.886 199.417 147.661C196.418 149.436 191.024 137.813 191.024 137.813C191.024 137.813 197.938 147.251 194.556 148.591C192.001 149.603 186.524 139.352 186.524 139.352C186.524 139.352 192.41 147.506 189.827 148.661C186.972 149.937 181.324 140.792 181.324 140.792C174.265 142.62 170.157 140.597 167.406 138.809C166.74 138.375 176.388 123.588 176.388 123.588Z" fill="#FFD4CB"/>
<path d="M193.288 133.579C194.14 134.61 195.01 135.648 195.768 136.751C196.526 137.855 197.247 138.986 197.899 140.156C199.498 143.024 200.053 145.071 200.005 144.948C198.87 142.046 196.217 138.053 195.459 136.949C194.702 135.848 194.002 134.709 193.245 133.606C193.226 133.578 193.267 133.554 193.288 133.579Z" fill="#0D0E0F"/>
<path d="M189.261 136.249C190.722 137.409 193.787 141.73 194.969 144.625C195.018 144.746 194.953 144.737 194.881 144.626C193.955 143.196 190.216 137.65 189.227 136.271C189.212 136.25 189.241 136.233 189.261 136.249Z" fill="#0D0E0F"/>
<path d="M185.393 137.919C187.085 139.597 188.505 141.887 189.622 144.534C189.673 144.653 189.577 144.635 189.507 144.522C188.143 142.297 187.089 140.541 185.324 137.978C185.296 137.937 185.354 137.88 185.393 137.919Z" fill="#0D0E0F"/>
<path d="M142.251 91.3381C136.237 82.8148 132.643 85.9742 133.849 95.2255C134.977 103.877 138.004 114.185 138.004 114.185L153.18 106.819C153.18 106.819 146.1 96.793 142.251 91.3381Z" fill="#FF0A62"/>
<path d="M145.928 94.6895C146.142 95.1779 146.26 95.6828 146.354 96.1916C146.437 96.7031 146.496 97.2179 146.457 97.7505C146.242 97.2621 146.124 96.7572 146.03 96.2484C145.949 95.7362 145.89 95.2214 145.928 94.6895Z" fill="white"/>
<path d="M136.947 99.8711C137.435 99.656 137.939 99.5385 138.446 99.4434C138.957 99.3609 139.471 99.3015 140.002 99.3405C139.515 99.5563 139.011 99.6744 138.503 99.7682C137.993 99.85 137.478 99.9087 136.947 99.8711Z" fill="white"/>
<path d="M137.338 86.6177C137.145 87.1153 136.873 87.5555 136.58 87.9826C136.278 88.4023 135.956 88.8089 135.553 89.1574C135.745 88.6597 136.018 88.2188 136.311 87.7925C136.614 87.3727 136.936 86.9668 137.338 86.6177Z" fill="white"/>
<path d="M150.144 103.852C149.951 104.349 149.679 104.789 149.386 105.216C149.084 105.636 148.762 106.043 148.359 106.391C148.552 105.894 148.824 105.453 149.118 105.026C149.42 104.607 149.743 104.201 150.144 103.852Z" fill="white"/>
<path d="M139.644 109.021C139.147 108.828 138.708 108.555 138.282 108.262C137.863 107.959 137.457 107.636 137.109 107.233C137.606 107.426 138.045 107.699 138.471 107.992C138.89 108.295 139.295 108.618 139.644 109.021Z" fill="white"/>
<path d="M144.27 93.9035C145.077 95.0169 145.914 96.1086 146.748 97.2022C146.537 96.6491 146.354 96.0901 146.19 95.5192C146.183 95.4928 146.221 95.4816 146.23 95.5067C146.399 95.9442 146.586 96.3759 146.747 96.8161C146.825 97.028 146.904 97.2385 146.985 97.449C147.003 97.4946 147.021 97.5395 147.039 97.5843C147.687 98.4377 148.334 99.2931 148.958 100.164C149.703 101.203 150.422 102.26 151.145 103.316C151.891 104.406 152.599 105.685 153.388 106.744C153.456 106.836 152.044 107.408 151.913 107.481C151.778 107.556 151.686 107.425 151.83 107.381C151.962 107.341 153.08 106.653 153.094 106.639C152.372 105.575 151.533 104.591 150.777 103.551C150.024 102.515 149.269 101.482 148.539 100.431C147.057 98.2952 145.696 96.0763 144.225 93.9313C144.206 93.9042 144.25 93.8765 144.27 93.9035Z" fill="#0D0E0F"/>
<path d="M134.222 101.346C134.453 101.796 134.701 102.242 134.905 102.705C134.989 102.896 135.072 103.087 135.157 103.279C134.811 101.631 134.472 99.9827 134.135 98.3327C134.131 98.3135 134.16 98.3037 134.165 98.3235C134.861 100.994 135.564 103.663 136.209 106.346C136.825 108.905 137.569 111.494 137.921 114.105C138.131 114.035 139.312 113.546 139.347 113.622C139.381 113.699 137.803 114.444 137.782 114.382C136.923 111.831 136.39 108.934 135.806 106.308C135.642 105.569 135.488 104.828 135.331 104.087C135.159 103.64 134.952 103.211 134.75 102.777C134.536 102.318 134.363 101.838 134.175 101.368C134.164 101.341 134.208 101.32 134.222 101.346Z" fill="#0D0E0F"/>
<path d="M138.243 111.642C140.352 110.45 149.161 105.881 151.132 105.02C151.268 104.96 151.34 105.03 151.205 105.11C144.975 108.83 140.422 110.656 138.293 111.721C138.241 111.748 138.19 111.672 138.243 111.642Z" fill="#0D0E0F"/>
<path d="M379.602 285.154H178.92L207.938 120.252H408.619L379.602 285.154Z" fill="#FF0A62"/>
<path d="M276.621 103.175H210.942L207.938 120.252H278.224L276.621 103.175Z" fill="#FF0A62"/>
<g opacity="0.1">
<path d="M379.602 285.154H178.92L207.938 120.252H408.619L379.602 285.154Z" fill="#0D0E0F"/>
<path d="M276.621 103.175H210.942L207.938 120.252H278.224L276.621 103.175Z" fill="#0D0E0F"/>
</g>
<path d="M203.857 110.141C203.597 109.184 203.539 108.226 203.527 107.269C203.537 106.312 203.595 105.355 203.857 104.398C204.118 105.355 204.176 106.312 204.186 107.269C204.175 108.227 204.116 109.184 203.857 110.141Z" fill="#0D0E0F"/>
<path d="M198.02 111.833C197.317 111.134 196.789 110.334 196.302 109.511C195.833 108.677 195.406 107.818 195.154 106.859C195.858 107.557 196.387 108.357 196.872 109.181C197.34 110.015 197.768 110.874 198.02 111.833Z" fill="#0D0E0F"/>
<path d="M193.809 116.221C192.852 115.967 191.995 115.54 191.163 115.07C190.34 114.583 189.542 114.054 188.846 113.349C189.803 113.601 190.66 114.029 191.492 114.499C192.314 114.988 193.112 115.517 193.809 116.221Z" fill="#0D0E0F"/>
<path d="M192.353 122.131C191.398 122.391 190.442 122.45 189.487 122.461C188.532 122.451 187.576 122.393 186.621 122.131C187.576 121.87 188.532 121.811 189.487 121.801C190.442 121.812 191.397 121.871 192.353 122.131Z" fill="#0D0E0F"/>
<path d="M194.04 127.979C193.342 128.684 192.544 129.213 191.723 129.701C190.891 130.171 190.034 130.599 189.076 130.851C189.773 130.146 190.571 129.617 191.393 129.13C192.226 128.66 193.083 128.232 194.04 127.979Z" fill="#0D0E0F"/>
<path d="M198.421 132.198C198.168 133.157 197.741 134.016 197.272 134.85C196.786 135.674 196.258 136.474 195.555 137.172C195.806 136.212 196.233 135.354 196.703 134.52C197.189 133.697 197.718 132.897 198.421 132.198Z" fill="#0D0E0F"/>
<path d="M204.318 133.657C204.577 134.615 204.636 135.572 204.647 136.529C204.637 137.486 204.579 138.444 204.318 139.401C204.056 138.444 203.998 137.486 203.988 136.529C203.999 135.572 204.058 134.615 204.318 133.657Z" fill="#0D0E0F"/>
<path d="M210.154 131.966C210.857 132.665 211.385 133.465 211.872 134.288C212.342 135.122 212.769 135.981 213.02 136.94C212.316 136.242 211.788 135.442 211.302 134.618C210.834 133.783 210.407 132.925 210.154 131.966Z" fill="#0D0E0F"/>
<path d="M214.365 127.577C215.322 127.831 216.179 128.259 217.012 128.728C217.834 129.215 218.633 129.744 219.329 130.449C218.371 130.197 217.514 129.769 216.682 129.299C215.861 128.811 215.063 128.282 214.365 127.577Z" fill="#0D0E0F"/>
<path d="M215.822 121.667C216.777 121.407 217.733 121.348 218.688 121.337C219.643 121.347 220.599 121.405 221.554 121.667C220.598 121.929 219.643 121.987 218.688 121.997C217.732 121.986 216.777 121.928 215.822 121.667Z" fill="#0D0E0F"/>
<path d="M214.133 115.82C214.83 115.115 215.629 114.586 216.45 114.098C217.282 113.628 218.139 113.2 219.097 112.948C218.4 113.653 217.601 114.182 216.779 114.669C215.947 115.138 215.09 115.566 214.133 115.82Z" fill="#0D0E0F"/>
<path d="M209.754 111.601C210.007 110.642 210.434 109.783 210.902 108.949C211.388 108.125 211.916 107.325 212.62 106.627C212.368 107.587 211.941 108.445 211.472 109.279C210.984 110.102 210.456 110.902 209.754 111.601Z" fill="#0D0E0F"/>
<path d="M379.306 285.154H178.193L149.639 126.238H350.753L379.306 285.154Z" fill="#FF0A62"/>
<path d="M219.33 223.385C223.946 223.385 227.689 219.635 227.689 215.009C227.689 210.383 223.946 206.633 219.33 206.633C214.713 206.633 210.971 210.383 210.971 215.009C210.971 219.635 214.713 223.385 219.33 223.385Z" fill="#0D0E0F"/>
<path d="M285.41 223.385C290.027 223.385 293.769 219.635 293.769 215.009C293.769 210.383 290.027 206.633 285.41 206.633C280.793 206.633 277.051 210.383 277.051 215.009C277.051 219.635 280.793 223.385 285.41 223.385Z" fill="#0D0E0F"/>
<path d="M264.376 224.722L263.918 223.845C263.876 223.766 259.558 215.768 250.869 215.768C242.945 215.768 241.013 223.298 240.934 223.619L240.7 224.578L238.783 224.114L239.014 223.154C239.036 223.06 241.368 213.788 250.869 213.788C260.773 213.788 265.473 222.553 265.668 222.926L266.127 223.803L264.376 224.722Z" fill="#0D0E0F"/>
<path d="M365.959 214.047C366.388 213.955 366.816 213.854 367.241 213.745" stroke="#0D0E0F" stroke-miterlimit="10"/>
<path d="M369.77 212.994C379.845 209.586 388.283 201.644 389.077 192.366C390.827 171.906 365.959 160.604 368.528 136.961C370.978 114.408 394.586 112.799 404.05 115.916C414.502 119.36 410.921 129.427 401.458 128.128C385.05 125.876 374.737 108.002 382.529 87.7272C388.351 72.5795 402.864 66.8665 408.76 65.1241" stroke="#0D0E0F" stroke-miterlimit="10" stroke-dasharray="4 4"/>
<path d="M410.029 64.7717C410.845 64.5612 411.31 64.4734 411.31 64.4734" stroke="#0D0E0F" stroke-miterlimit="10"/>
<path d="M421.756 60.8282C420.075 55.6115 408.825 57.4859 411.021 64.3011C413.217 71.1169 423.437 66.0448 421.756 60.8282Z" fill="#0D0E0F"/>
<path d="M404.902 58.7248C404.986 56.4372 408.162 54.677 412.652 55.4888C417.141 56.3013 421.37 59.3313 421.37 59.3313C421.37 59.3313 416.931 62.0525 412.394 62.5323C407.856 63.0128 404.818 61.0236 404.902 58.7248Z" fill="#EBEBEB"/>
<path d="M421.369 59.3313C419.038 59.3472 416.711 59.2693 414.382 59.198C412.055 59.0984 409.728 59.006 407.404 58.8172C409.735 58.8 412.063 58.8792 414.391 58.9505C416.719 59.0508 419.046 59.1439 421.369 59.3313Z" fill="#0D0E0F"/>
<path d="M409.414 56.6992C410.089 57.0015 410.712 57.385 411.34 57.7612C411.953 58.1624 412.57 58.5571 413.136 59.033C412.461 58.7314 411.837 58.3479 411.21 57.9704C410.596 57.5698 409.981 57.1751 409.414 56.6992Z" fill="#0D0E0F"/>
<path d="M415.517 59.1161C414.927 59.6183 414.285 60.0401 413.648 60.4684C412.994 60.8724 412.345 61.2835 411.645 61.6129C412.235 61.1106 412.876 60.6882 413.514 60.2605C414.167 59.8566 414.816 59.4467 415.517 59.1161Z" fill="#0D0E0F"/>
<path d="M416.193 57.8278C416.541 57.9776 416.83 58.2013 417.122 58.4198C417.397 58.66 417.677 58.8943 417.896 59.2039C417.548 59.0547 417.26 58.8303 416.967 58.6118C416.693 58.3709 416.413 58.136 416.193 57.8278Z" fill="#0D0E0F"/>
<path d="M409.179 72.3029C410.583 74.1093 414.187 73.6757 417.355 70.3862C420.522 67.0961 422.184 62.1606 422.184 62.1606C422.184 62.1606 416.994 62.5547 413.035 64.8244C409.073 67.0935 407.769 70.4879 409.179 72.3029Z" fill="#EBEBEB"/>
<path d="M422.184 62.16C420.283 63.513 418.441 64.9406 416.594 66.3629C414.765 67.8077 412.931 69.2465 411.156 70.7605C413.057 69.4082 414.899 67.9799 416.746 66.5576C418.575 65.1129 420.409 63.6741 422.184 62.16Z" fill="#0D0E0F"/>
<path d="M414.021 71.301C414.392 70.6601 414.674 69.9843 414.964 69.3104C415.227 68.626 415.497 67.9442 415.678 67.2268C415.307 67.867 415.025 68.5435 414.736 69.2174C414.473 69.9018 414.203 70.5836 414.021 71.301Z" fill="#0D0E0F"/>
<path d="M417.562 65.7649C416.79 65.7035 416.023 65.7372 415.256 65.7629C414.49 65.8177 413.724 65.8652 412.963 66.0084C413.735 66.0705 414.502 66.0368 415.269 66.0104C416.034 65.955 416.8 65.9068 417.562 65.7649Z" fill="#0D0E0F"/>
<path d="M418.863 66.4124C419.058 66.0871 419.161 65.7366 419.272 65.3881C419.354 65.0317 419.444 64.678 419.442 64.2985C419.246 64.6238 419.143 64.9743 419.033 65.3228C418.951 65.6792 418.861 66.0336 418.863 66.4124Z" fill="#0D0E0F"/>
<path d="M421.756 60.8282C420.719 61.1635 419.606 60.5932 419.272 59.5537C418.937 58.5142 419.506 57.4002 420.543 57.0642C421.58 56.7283 422.693 57.2992 423.027 58.3387C423.363 59.3782 422.794 60.4929 421.756 60.8282Z" fill="#0D0E0F"/>
<path d="M422.967 64.5922C421.93 64.9275 420.818 64.3573 420.483 63.3178C420.148 62.2783 420.717 61.1642 421.755 60.8283C422.792 60.493 423.904 61.0632 424.239 62.1027C424.574 63.1416 424.005 64.2563 422.967 64.5922Z" fill="#0D0E0F"/>
<path d="M207.028 62.9118C206.085 71.9466 198.007 78.5076 188.991 77.5625C185.347 77.1804 182.108 75.6307 179.6 73.3161L171.387 74.5239L175.496 67.4091C174.499 64.9783 174.079 62.273 174.37 59.4884C175.313 50.4537 183.391 43.8926 192.407 44.8377C201.423 45.7829 207.97 53.8771 207.028 62.9118Z" fill="white"/>
<path d="M207.028 62.9118C206.685 65.9148 205.589 68.8584 203.715 71.2503C203.284 71.8766 202.729 72.4 202.227 72.9669C201.656 73.4646 201.124 74.0111 200.494 74.4368C199.294 75.3634 197.944 76.0901 196.534 76.6464C195.131 77.2385 193.621 77.5209 192.115 77.7024C191.355 77.7434 190.595 77.8127 189.834 77.746C189.072 77.7288 188.312 77.647 187.562 77.5091C184.558 76.9639 181.713 75.5548 179.44 73.491L179.634 73.551L171.429 74.813L170.834 74.9047L171.136 74.3787L175.221 67.25L175.202 67.5312C173.212 62.8359 173.66 57.2444 176.213 52.8693C177.485 50.6787 179.26 48.7911 181.354 47.3834C183.447 45.9716 185.875 45.0866 188.36 44.7493C190.848 44.4186 193.408 44.6457 195.784 45.4364C198.157 46.2369 200.332 47.5833 202.115 49.3264C205.739 52.7789 207.561 57.9585 207.028 62.9118ZM207.028 62.9118C207.527 57.9546 205.669 52.8066 202.043 49.4003C200.243 47.6969 198.063 46.4066 195.712 45.6575C193.356 44.9189 190.837 44.7427 188.411 45.109C185.986 45.4819 183.638 46.3868 181.63 47.7926C179.628 49.2017 177.938 51.0444 176.719 53.161C175.474 55.273 174.83 57.6926 174.635 60.1214C174.482 62.5581 174.878 65.0245 175.79 67.2876L175.85 67.4348L175.771 67.5695L171.638 74.6697L171.344 74.2355L179.565 73.0818L179.679 73.0659L179.76 73.1418C181.933 75.1859 184.682 76.6128 187.621 77.1995C188.355 77.348 189.099 77.4411 189.848 77.4708C190.595 77.55 191.344 77.4945 192.094 77.4675C193.581 77.3144 195.08 77.0622 196.479 76.4999C197.884 75.9726 199.242 75.2816 200.439 74.3615C201.069 73.9424 201.601 73.4032 202.173 72.9115C202.677 72.3512 203.233 71.8337 203.666 71.2127C205.549 68.8419 206.664 65.9129 207.028 62.9118Z" fill="#0D0E0F"/>
<path d="M182.674 68.8704C182.674 67.8883 183.354 67.1788 184.28 67.1788C185.26 67.1788 185.886 67.8883 185.886 68.8704C185.886 69.8254 185.26 70.5613 184.28 70.5613C183.327 70.5613 182.674 69.8247 182.674 68.8704ZM183.354 64.9691L182.973 51.8754H185.586L185.205 64.9691H183.354Z" fill="#FF0A62"/>
<path d="M188.936 68.8704C188.936 67.8883 189.616 67.1788 190.542 67.1788C191.522 67.1788 192.149 67.8883 192.149 68.8704C192.149 69.8254 191.522 70.5613 190.542 70.5613C189.589 70.5613 188.936 69.8247 188.936 68.8704ZM189.616 64.9691L189.235 51.8754H191.849L191.468 64.9691H189.616Z" fill="#FF0A62"/>
<path d="M195.197 68.8704C195.197 67.8883 195.878 67.1788 196.804 67.1788C197.784 67.1788 198.41 67.8883 198.41 68.8704C198.41 69.8254 197.783 70.5613 196.804 70.5613C195.851 70.5613 195.197 69.8247 195.197 68.8704ZM195.878 64.9691L195.497 51.8754H198.111L197.73 64.9691H195.878Z" fill="#FF0A62"/>
</svg>
